<mxfile host="app.diagrams.net" modified="2022-06-20T08:00:38.183Z" agent="5.0 (Macintosh; Intel Mac OS X 10_15_7) AppleWebKit/537.36 (KHTML, like Gecko) Chrome/102.0.0.0 Safari/537.36" etag="TE83yk2qJYh64xOOLw3z" version="19.0.0" type="github">
  <diagram id="TQY5tcT9EsOfyioHa-ho" name="Page-1">
    <mxGraphModel dx="951" dy="1698" grid="0" gridSize="10" guides="1" tooltips="1" connect="1" arrows="1" fold="1" page="1" pageScale="1" pageWidth="827" pageHeight="1169" math="0" shadow="0">
      <root>
        <mxCell id="0" />
        <mxCell id="1" parent="0" />
        <mxCell id="emqekUWZEo4hiSELnuDW-5" value="" style="rounded=0;whiteSpace=wrap;html=1;align=center;fillColor=#d0cee2;strokeColor=#56517e;fontColor=#4D4D4D;fontStyle=1" parent="1" vertex="1">
          <mxGeometry x="70" y="198" width="440" height="160" as="geometry" />
        </mxCell>
        <mxCell id="emqekUWZEo4hiSELnuDW-6" value="Koa Server" style="text;html=1;align=center;verticalAlign=middle;resizable=0;points=[];autosize=1;strokeColor=none;fillColor=none;fontColor=#4D4D4D;fontStyle=1" parent="1" vertex="1">
          <mxGeometry x="70" y="198" width="80" height="20" as="geometry" />
        </mxCell>
        <mxCell id="emqekUWZEo4hiSELnuDW-8" value="&lt;p style=&quot;line-height: 2&quot;&gt;list&lt;br&gt;delete&lt;br&gt;create&lt;br&gt;update&lt;/p&gt;" style="rounded=0;whiteSpace=wrap;html=1;fillColor=#d0cee2;strokeColor=#56517e;fontColor=#4D4D4D;fontStyle=1" parent="1" vertex="1">
          <mxGeometry x="140" y="218" width="110" height="110" as="geometry" />
        </mxCell>
        <mxCell id="emqekUWZEo4hiSELnuDW-9" value="Employee" style="text;html=1;strokeColor=none;fillColor=none;align=center;verticalAlign=middle;whiteSpace=wrap;rounded=0;fontColor=#4D4D4D;fontStyle=1" parent="1" vertex="1">
          <mxGeometry x="165" y="328" width="60" height="30" as="geometry" />
        </mxCell>
        <mxCell id="emqekUWZEo4hiSELnuDW-10" value="&lt;p style=&quot;line-height: 2&quot;&gt;login&lt;br&gt;logout&lt;br&gt;auth&lt;/p&gt;" style="rounded=0;whiteSpace=wrap;html=1;fillColor=#d0cee2;strokeColor=#56517e;fontColor=#4D4D4D;fontStyle=1" parent="1" vertex="1">
          <mxGeometry x="330" y="218" width="110" height="110" as="geometry" />
        </mxCell>
        <mxCell id="emqekUWZEo4hiSELnuDW-11" value="Auth" style="text;html=1;strokeColor=none;fillColor=none;align=center;verticalAlign=middle;whiteSpace=wrap;rounded=0;fontColor=#4D4D4D;fontStyle=1" parent="1" vertex="1">
          <mxGeometry x="355" y="328" width="60" height="30" as="geometry" />
        </mxCell>
        <mxCell id="emqekUWZEo4hiSELnuDW-16" value="Data Layer" style="swimlane;fontStyle=0;childLayout=stackLayout;horizontal=1;startSize=30;horizontalStack=0;resizeParent=1;resizeParentMax=0;resizeLast=0;collapsible=1;marginBottom=0;" parent="1" vertex="1">
          <mxGeometry x="80" y="-140" width="140" height="60" as="geometry" />
        </mxCell>
        <mxCell id="emqekUWZEo4hiSELnuDW-17" value="file system" style="text;strokeColor=none;fillColor=none;align=center;verticalAlign=middle;spacingLeft=4;spacingRight=4;overflow=hidden;points=[[0,0.5],[1,0.5]];portConstraint=eastwest;rotatable=0;" parent="emqekUWZEo4hiSELnuDW-16" vertex="1">
          <mxGeometry y="30" width="140" height="30" as="geometry" />
        </mxCell>
        <mxCell id="emqekUWZEo4hiSELnuDW-20" value="Server" style="swimlane;fontStyle=0;childLayout=stackLayout;horizontal=1;startSize=30;horizontalStack=0;resizeParent=1;resizeParentMax=0;resizeLast=0;collapsible=1;marginBottom=0;" parent="1" vertex="1">
          <mxGeometry x="295" y="-140" width="140" height="60" as="geometry" />
        </mxCell>
        <mxCell id="emqekUWZEo4hiSELnuDW-21" value="Koa Server" style="text;strokeColor=none;fillColor=none;align=center;verticalAlign=middle;spacingLeft=4;spacingRight=4;overflow=hidden;points=[[0,0.5],[1,0.5]];portConstraint=eastwest;rotatable=0;" parent="emqekUWZEo4hiSELnuDW-20" vertex="1">
          <mxGeometry y="30" width="140" height="30" as="geometry" />
        </mxCell>
        <mxCell id="emqekUWZEo4hiSELnuDW-24" value="Client" style="swimlane;fontStyle=0;childLayout=stackLayout;horizontal=1;startSize=30;horizontalStack=0;resizeParent=1;resizeParentMax=0;resizeLast=0;collapsible=1;marginBottom=0;" parent="1" vertex="1">
          <mxGeometry x="500" y="-140" width="140" height="60" as="geometry" />
        </mxCell>
        <mxCell id="emqekUWZEo4hiSELnuDW-25" value="React SPA" style="text;strokeColor=none;fillColor=none;align=center;verticalAlign=middle;spacingLeft=4;spacingRight=4;overflow=hidden;points=[[0,0.5],[1,0.5]];portConstraint=eastwest;rotatable=0;" parent="emqekUWZEo4hiSELnuDW-24" vertex="1">
          <mxGeometry y="30" width="140" height="30" as="geometry" />
        </mxCell>
        <mxCell id="emqekUWZEo4hiSELnuDW-30" value="" style="shape=flexArrow;endArrow=classic;startArrow=classic;html=1;rounded=0;width=4.7407407407407405;endSize=3.8087591240875915;endWidth=0.9137604758042716;startWidth=0.9137604758042716;startSize=3.8087591240875915;" parent="1" edge="1">
          <mxGeometry width="100" height="100" relative="1" as="geometry">
            <mxPoint x="230" y="-110" as="sourcePoint" />
            <mxPoint x="280" y="-110" as="targetPoint" />
          </mxGeometry>
        </mxCell>
        <mxCell id="emqekUWZEo4hiSELnuDW-31" value="" style="shape=flexArrow;endArrow=classic;startArrow=classic;html=1;rounded=0;width=4.7407407407407405;endSize=3.8087591240875915;endWidth=0.9137604758042716;startWidth=0.9137604758042716;startSize=3.8087591240875915;" parent="1" edge="1">
          <mxGeometry width="100" height="100" relative="1" as="geometry">
            <mxPoint x="440" y="-110.21000000000001" as="sourcePoint" />
            <mxPoint x="490" y="-110.21000000000001" as="targetPoint" />
          </mxGeometry>
        </mxCell>
        <mxCell id="emqekUWZEo4hiSELnuDW-32" value="employeeList.json" style="rounded=0;whiteSpace=wrap;html=1;align=center;fillColor=#f5f5f5;fontColor=#4D4D4D;strokeColor=#666666;fontStyle=1" parent="1" vertex="1">
          <mxGeometry x="70" y="388" width="440" height="50" as="geometry" />
        </mxCell>
        <mxCell id="emqekUWZEo4hiSELnuDW-33" value="File System" style="text;html=1;strokeColor=none;fillColor=none;align=center;verticalAlign=middle;whiteSpace=wrap;rounded=0;fontColor=#4D4D4D;fontStyle=1" parent="1" vertex="1">
          <mxGeometry x="70" y="388" width="75" height="30" as="geometry" />
        </mxCell>
        <mxCell id="emqekUWZEo4hiSELnuDW-38" value="" style="rounded=0;whiteSpace=wrap;html=1;align=center;fillColor=#d5e8d4;strokeColor=#82b366;fontColor=#4D4D4D;fontStyle=1" parent="1" vertex="1">
          <mxGeometry x="70" y="20" width="440" height="148" as="geometry" />
        </mxCell>
        <mxCell id="emqekUWZEo4hiSELnuDW-39" value="Web Client" style="text;html=1;align=center;verticalAlign=middle;resizable=0;points=[];autosize=1;strokeColor=none;fillColor=none;fontColor=#4D4D4D;fontStyle=1" parent="1" vertex="1">
          <mxGeometry x="70" y="20" width="80" height="20" as="geometry" />
        </mxCell>
        <mxCell id="emqekUWZEo4hiSELnuDW-40" value="&lt;p style=&quot;line-height: 2&quot;&gt;Header&lt;br&gt;Sider&lt;br&gt;Content&lt;br&gt;&lt;/p&gt;" style="rounded=0;whiteSpace=wrap;html=1;fillColor=#d5e8d4;strokeColor=#82b366;fontColor=#4D4D4D;fontStyle=1" parent="1" vertex="1">
          <mxGeometry x="250" y="48" width="85" height="100" as="geometry" />
        </mxCell>
        <mxCell id="emqekUWZEo4hiSELnuDW-41" value="&lt;p style=&quot;line-height: 1&quot;&gt;Home&lt;/p&gt;&lt;p style=&quot;line-height: 1&quot;&gt;Login&lt;/p&gt;&lt;p style=&quot;line-height: 1&quot;&gt;Table&lt;/p&gt;&lt;p style=&quot;line-height: 1&quot;&gt;No Permission&lt;/p&gt;" style="rounded=0;whiteSpace=wrap;html=1;fillColor=#d5e8d4;strokeColor=#82b366;fontColor=#4D4D4D;fontStyle=1" parent="1" vertex="1">
          <mxGeometry x="380" y="48" width="90" height="100" as="geometry" />
        </mxCell>
        <mxCell id="emqekUWZEo4hiSELnuDW-44" value="&lt;p style=&quot;line-height: 1.2&quot;&gt;Error Handling&lt;/p&gt;&lt;p style=&quot;line-height: 1.2&quot;&gt;Loading&lt;/p&gt;&lt;p style=&quot;line-height: 1.2&quot;&gt;Context&lt;/p&gt;" style="rounded=0;whiteSpace=wrap;html=1;fillColor=#d5e8d4;strokeColor=#82b366;fontColor=#4D4D4D;fontStyle=1" parent="1" vertex="1">
          <mxGeometry x="120" y="49" width="90" height="99" as="geometry" />
        </mxCell>
        <mxCell id="emqekUWZEo4hiSELnuDW-46" value="Common" style="text;html=1;strokeColor=none;fillColor=none;align=center;verticalAlign=middle;whiteSpace=wrap;rounded=0;fontColor=#4D4D4D;fontStyle=1" parent="1" vertex="1">
          <mxGeometry x="130" y="148" width="60" height="20" as="geometry" />
        </mxCell>
        <mxCell id="emqekUWZEo4hiSELnuDW-47" value="Layout" style="text;html=1;strokeColor=none;fillColor=none;align=center;verticalAlign=middle;whiteSpace=wrap;rounded=0;fontColor=#4D4D4D;fontStyle=1" parent="1" vertex="1">
          <mxGeometry x="262.5" y="148" width="57.5" height="20" as="geometry" />
        </mxCell>
        <mxCell id="emqekUWZEo4hiSELnuDW-48" value="Pages" style="text;html=1;strokeColor=none;fillColor=none;align=center;verticalAlign=middle;whiteSpace=wrap;rounded=0;fontColor=#4D4D4D;fontStyle=1" parent="1" vertex="1">
          <mxGeometry x="396.25" y="148" width="57.5" height="20" as="geometry" />
        </mxCell>
        <mxCell id="emqekUWZEo4hiSELnuDW-50" value="" style="shape=flexArrow;endArrow=classic;startArrow=classic;html=1;rounded=0;fontColor=#4D4D4D;endWidth=5.766871165644171;endSize=2.411764705882353;startWidth=5.766871165644171;startSize=2.1231578947368424;width=3.789473684210526;fillColor=#d0cee2;strokeColor=#56517e;" parent="1" edge="1">
          <mxGeometry width="100" height="100" relative="1" as="geometry">
            <mxPoint x="289.6" y="198" as="sourcePoint" />
            <mxPoint x="289.6" y="168" as="targetPoint" />
          </mxGeometry>
        </mxCell>
        <mxCell id="emqekUWZEo4hiSELnuDW-51" value="" style="shape=flexArrow;endArrow=classic;startArrow=classic;html=1;rounded=0;fontColor=#4D4D4D;endWidth=5.766871165644171;endSize=2.411764705882353;startWidth=5.766871165644171;startSize=2.1231578947368424;width=3.789473684210526;fillColor=#f5f5f5;strokeColor=#666666;" parent="1" edge="1">
          <mxGeometry width="100" height="100" relative="1" as="geometry">
            <mxPoint x="289.5999999999999" y="388" as="sourcePoint" />
            <mxPoint x="289.5999999999999" y="358" as="targetPoint" />
          </mxGeometry>
        </mxCell>
        <mxCell id="PjQ2mY4G1VqOZh-ndftg-7" style="edgeStyle=orthogonalEdgeStyle;rounded=0;orthogonalLoop=1;jettySize=auto;html=1;exitX=0.5;exitY=1;exitDx=0;exitDy=0;entryX=0.5;entryY=0;entryDx=0;entryDy=0;" edge="1" parent="1" source="PjQ2mY4G1VqOZh-ndftg-1" target="PjQ2mY4G1VqOZh-ndftg-2">
          <mxGeometry relative="1" as="geometry" />
        </mxCell>
        <mxCell id="PjQ2mY4G1VqOZh-ndftg-1" value="Enter" style="rounded=1;whiteSpace=wrap;html=1;fillColor=#d5e8d4;strokeColor=#82b366;" vertex="1" parent="1">
          <mxGeometry x="209.5" y="511" width="85" height="32" as="geometry" />
        </mxCell>
        <mxCell id="PjQ2mY4G1VqOZh-ndftg-14" style="edgeStyle=orthogonalEdgeStyle;rounded=0;orthogonalLoop=1;jettySize=auto;html=1;exitX=1;exitY=0.5;exitDx=0;exitDy=0;entryX=0;entryY=0.5;entryDx=0;entryDy=0;" edge="1" parent="1" source="PjQ2mY4G1VqOZh-ndftg-2" target="PjQ2mY4G1VqOZh-ndftg-10">
          <mxGeometry relative="1" as="geometry" />
        </mxCell>
        <mxCell id="PjQ2mY4G1VqOZh-ndftg-15" style="edgeStyle=orthogonalEdgeStyle;rounded=0;orthogonalLoop=1;jettySize=auto;html=1;exitX=0.5;exitY=1;exitDx=0;exitDy=0;entryX=0.5;entryY=0;entryDx=0;entryDy=0;" edge="1" parent="1" source="PjQ2mY4G1VqOZh-ndftg-2" target="PjQ2mY4G1VqOZh-ndftg-11">
          <mxGeometry relative="1" as="geometry" />
        </mxCell>
        <mxCell id="PjQ2mY4G1VqOZh-ndftg-2" value="logged in" style="rhombus;whiteSpace=wrap;html=1;fillColor=#f5f5f5;strokeColor=#666666;fontColor=#333333;" vertex="1" parent="1">
          <mxGeometry x="212" y="596" width="80" height="53" as="geometry" />
        </mxCell>
        <mxCell id="PjQ2mY4G1VqOZh-ndftg-4" style="edgeStyle=orthogonalEdgeStyle;rounded=0;orthogonalLoop=1;jettySize=auto;html=1;exitX=0.5;exitY=1;exitDx=0;exitDy=0;" edge="1" parent="1" source="PjQ2mY4G1VqOZh-ndftg-2" target="PjQ2mY4G1VqOZh-ndftg-2">
          <mxGeometry relative="1" as="geometry" />
        </mxCell>
        <mxCell id="PjQ2mY4G1VqOZh-ndftg-18" style="edgeStyle=orthogonalEdgeStyle;rounded=0;orthogonalLoop=1;jettySize=auto;html=1;exitX=0.5;exitY=1;exitDx=0;exitDy=0;entryX=1;entryY=0.5;entryDx=0;entryDy=0;" edge="1" parent="1" source="PjQ2mY4G1VqOZh-ndftg-10" target="PjQ2mY4G1VqOZh-ndftg-11">
          <mxGeometry relative="1" as="geometry" />
        </mxCell>
        <mxCell id="PjQ2mY4G1VqOZh-ndftg-10" value="Login Page" style="rounded=0;whiteSpace=wrap;html=1;fillColor=#bac8d3;strokeColor=#23445d;" vertex="1" parent="1">
          <mxGeometry x="357" y="592.5" width="120" height="60" as="geometry" />
        </mxCell>
        <mxCell id="PjQ2mY4G1VqOZh-ndftg-20" style="edgeStyle=orthogonalEdgeStyle;rounded=0;orthogonalLoop=1;jettySize=auto;html=1;exitX=0.5;exitY=1;exitDx=0;exitDy=0;entryX=0.5;entryY=0;entryDx=0;entryDy=0;" edge="1" parent="1" source="PjQ2mY4G1VqOZh-ndftg-11" target="PjQ2mY4G1VqOZh-ndftg-12">
          <mxGeometry relative="1" as="geometry" />
        </mxCell>
        <mxCell id="PjQ2mY4G1VqOZh-ndftg-23" style="edgeStyle=orthogonalEdgeStyle;rounded=0;orthogonalLoop=1;jettySize=auto;html=1;exitX=0.5;exitY=1;exitDx=0;exitDy=0;" edge="1" parent="1" source="PjQ2mY4G1VqOZh-ndftg-11" target="PjQ2mY4G1VqOZh-ndftg-22">
          <mxGeometry relative="1" as="geometry" />
        </mxCell>
        <mxCell id="PjQ2mY4G1VqOZh-ndftg-11" value="Home Page&lt;br&gt;(differentiate by use role)" style="rounded=0;whiteSpace=wrap;html=1;fillColor=#bac8d3;strokeColor=#23445d;" vertex="1" parent="1">
          <mxGeometry x="192" y="690" width="120" height="60" as="geometry" />
        </mxCell>
        <mxCell id="PjQ2mY4G1VqOZh-ndftg-12" value="Table Page" style="rounded=0;whiteSpace=wrap;html=1;fillColor=#bac8d3;strokeColor=#23445d;" vertex="1" parent="1">
          <mxGeometry x="106" y="852" width="120" height="60" as="geometry" />
        </mxCell>
        <mxCell id="PjQ2mY4G1VqOZh-ndftg-16" value="Yes" style="text;html=1;align=center;verticalAlign=middle;resizable=0;points=[];autosize=1;strokeColor=none;fillColor=none;" vertex="1" parent="1">
          <mxGeometry x="224" y="657" width="30" height="18" as="geometry" />
        </mxCell>
        <mxCell id="PjQ2mY4G1VqOZh-ndftg-17" value="No" style="text;html=1;align=center;verticalAlign=middle;resizable=0;points=[];autosize=1;strokeColor=none;fillColor=none;" vertex="1" parent="1">
          <mxGeometry x="310" y="603" width="25" height="18" as="geometry" />
        </mxCell>
        <mxCell id="PjQ2mY4G1VqOZh-ndftg-19" value="Login" style="text;html=1;align=center;verticalAlign=middle;resizable=0;points=[];autosize=1;strokeColor=none;fillColor=none;" vertex="1" parent="1">
          <mxGeometry x="421" y="677" width="39" height="18" as="geometry" />
        </mxCell>
        <mxCell id="PjQ2mY4G1VqOZh-ndftg-21" value="Menu route" style="text;html=1;align=center;verticalAlign=middle;resizable=0;points=[];autosize=1;strokeColor=none;fillColor=none;" vertex="1" parent="1">
          <mxGeometry x="254" y="766" width="71" height="18" as="geometry" />
        </mxCell>
        <mxCell id="PjQ2mY4G1VqOZh-ndftg-26" style="edgeStyle=orthogonalEdgeStyle;rounded=0;orthogonalLoop=1;jettySize=auto;html=1;exitX=1;exitY=0.5;exitDx=0;exitDy=0;entryX=0.5;entryY=1;entryDx=0;entryDy=0;" edge="1" parent="1" source="PjQ2mY4G1VqOZh-ndftg-22" target="PjQ2mY4G1VqOZh-ndftg-25">
          <mxGeometry relative="1" as="geometry" />
        </mxCell>
        <mxCell id="PjQ2mY4G1VqOZh-ndftg-22" value="Chart Page" style="rounded=0;whiteSpace=wrap;html=1;fillColor=#bac8d3;strokeColor=#23445d;" vertex="1" parent="1">
          <mxGeometry x="273" y="852" width="120" height="60" as="geometry" />
        </mxCell>
        <mxCell id="PjQ2mY4G1VqOZh-ndftg-25" value="No permission" style="rounded=0;whiteSpace=wrap;html=1;fillColor=#bac8d3;strokeColor=#23445d;" vertex="1" parent="1">
          <mxGeometry x="411" y="750" width="120" height="60" as="geometry" />
        </mxCell>
        <mxCell id="PjQ2mY4G1VqOZh-ndftg-27" value="Not Admin" style="text;html=1;align=center;verticalAlign=middle;resizable=0;points=[];autosize=1;strokeColor=none;fillColor=none;" vertex="1" parent="1">
          <mxGeometry x="404" y="863" width="65" height="18" as="geometry" />
        </mxCell>
        <mxCell id="PjQ2mY4G1VqOZh-ndftg-31" value="" style="rounded=0;whiteSpace=wrap;html=1;fillColor=#f9f7ed;strokeColor=#999999;" vertex="1" parent="1">
          <mxGeometry x="35" y="1210" width="661" height="341" as="geometry" />
        </mxCell>
        <mxCell id="PjQ2mY4G1VqOZh-ndftg-32" value="UserContext" style="text;html=1;strokeColor=none;fillColor=none;align=center;verticalAlign=middle;whiteSpace=wrap;rounded=0;fontColor=#4D4D4D;fontSize=13;fontStyle=1" vertex="1" parent="1">
          <mxGeometry x="35" y="1212" width="93" height="30" as="geometry" />
        </mxCell>
        <mxCell id="PjQ2mY4G1VqOZh-ndftg-33" value="" style="rounded=0;whiteSpace=wrap;html=1;fillColor=#eeeeee;strokeColor=#999999;" vertex="1" parent="1">
          <mxGeometry x="66" y="1238" width="605" height="280" as="geometry" />
        </mxCell>
        <mxCell id="PjQ2mY4G1VqOZh-ndftg-34" value="MenuContext" style="text;html=1;strokeColor=none;fillColor=none;align=center;verticalAlign=middle;whiteSpace=wrap;rounded=0;fontColor=#4D4D4D;fontStyle=1;fontSize=13;" vertex="1" parent="1">
          <mxGeometry x="66" y="1238" width="93" height="30" as="geometry" />
        </mxCell>
        <mxCell id="PjQ2mY4G1VqOZh-ndftg-41" value="" style="rounded=0;whiteSpace=wrap;html=1;fillColor=#d5e8d4;strokeColor=#82b366;fontSize=14;fontStyle=1" vertex="1" parent="1">
          <mxGeometry x="199.5" y="1401.5" width="444" height="84" as="geometry" />
        </mxCell>
        <mxCell id="PjQ2mY4G1VqOZh-ndftg-43" value="No permission" style="rounded=0;whiteSpace=wrap;html=1;fillColor=#bac8d3;strokeColor=#23445d;fontSize=14;fontStyle=1" vertex="1" parent="1">
          <mxGeometry x="374" y="1336.5" width="119" height="43" as="geometry" />
        </mxCell>
        <mxCell id="PjQ2mY4G1VqOZh-ndftg-44" value="Login" style="rounded=0;whiteSpace=wrap;html=1;fillColor=#bac8d3;strokeColor=#23445d;fontSize=14;fontStyle=1" vertex="1" parent="1">
          <mxGeometry x="531.5" y="1336.5" width="112" height="43" as="geometry" />
        </mxCell>
        <mxCell id="PjQ2mY4G1VqOZh-ndftg-45" value="Home" style="rounded=0;whiteSpace=wrap;html=1;fillColor=#bac8d3;strokeColor=#23445d;fontSize=14;fontStyle=1" vertex="1" parent="1">
          <mxGeometry x="199.5" y="1337.5" width="126.5" height="43" as="geometry" />
        </mxCell>
        <mxCell id="PjQ2mY4G1VqOZh-ndftg-46" value="Table Context" style="text;html=1;strokeColor=none;fillColor=#d5e8d4;align=center;verticalAlign=middle;whiteSpace=wrap;rounded=0;fontSize=14;fontStyle=1" vertex="1" parent="1">
          <mxGeometry x="201.5" y="1401.5" width="101.5" height="30" as="geometry" />
        </mxCell>
        <mxCell id="PjQ2mY4G1VqOZh-ndftg-47" value="Filter" style="rounded=0;whiteSpace=wrap;html=1;fillColor=#d5e8d4;strokeColor=#82b366;fontSize=14;fontStyle=1" vertex="1" parent="1">
          <mxGeometry x="239.25" y="1435.5" width="101" height="31" as="geometry" />
        </mxCell>
        <mxCell id="PjQ2mY4G1VqOZh-ndftg-49" value="Table" style="rounded=0;whiteSpace=wrap;html=1;fillColor=#d5e8d4;strokeColor=#82b366;fontSize=14;fontStyle=1" vertex="1" parent="1">
          <mxGeometry x="366.25" y="1435.5" width="101" height="31" as="geometry" />
        </mxCell>
        <mxCell id="PjQ2mY4G1VqOZh-ndftg-50" value="Create" style="rounded=0;whiteSpace=wrap;html=1;fillColor=#d5e8d4;strokeColor=#82b366;fontSize=14;fontStyle=1" vertex="1" parent="1">
          <mxGeometry x="494.75" y="1435.5" width="101" height="31" as="geometry" />
        </mxCell>
        <mxCell id="PjQ2mY4G1VqOZh-ndftg-51" style="edgeStyle=orthogonalEdgeStyle;rounded=0;orthogonalLoop=1;jettySize=auto;html=1;exitX=0.5;exitY=1;exitDx=0;exitDy=0;fontColor=#4D4D4D;" edge="1" parent="1" source="PjQ2mY4G1VqOZh-ndftg-31" target="PjQ2mY4G1VqOZh-ndftg-31">
          <mxGeometry relative="1" as="geometry" />
        </mxCell>
        <mxCell id="PjQ2mY4G1VqOZh-ndftg-54" value="" style="rounded=0;whiteSpace=wrap;html=1;fontSize=14;fontColor=#4D4D4D;labelBackgroundColor=none;fillColor=none;strokeColor=#999999;" vertex="1" parent="1">
          <mxGeometry x="186.5" y="1301" width="467" height="196" as="geometry" />
        </mxCell>
        <mxCell id="PjQ2mY4G1VqOZh-ndftg-56" value="Header" style="rounded=0;whiteSpace=wrap;html=1;labelBackgroundColor=none;fontSize=14;strokeColor=#36393d;fillColor=#cce5ff;fontStyle=1" vertex="1" parent="1">
          <mxGeometry x="186.5" y="1251" width="461" height="34" as="geometry" />
        </mxCell>
        <mxCell id="PjQ2mY4G1VqOZh-ndftg-57" value="Sider" style="rounded=0;whiteSpace=wrap;html=1;labelBackgroundColor=none;fontSize=14;strokeColor=#36393d;fillColor=#cce5ff;fontStyle=1" vertex="1" parent="1">
          <mxGeometry x="94" y="1279" width="59.5" height="218" as="geometry" />
        </mxCell>
        <mxCell id="PjQ2mY4G1VqOZh-ndftg-58" value="Pages - One of" style="text;html=1;strokeColor=none;fillColor=none;align=center;verticalAlign=middle;whiteSpace=wrap;rounded=0;labelBackgroundColor=none;fontSize=14;fontColor=#4D4D4D;" vertex="1" parent="1">
          <mxGeometry x="362" y="1301" width="110" height="30" as="geometry" />
        </mxCell>
      </root>
    </mxGraphModel>
  </diagram>
</mxfile>
